<mxfile host="app.diagrams.net" modified="2024-03-14T01:59:54.543Z" agent="Mozilla/5.0 (Windows NT 10.0; Win64; x64; rv:123.0) Gecko/20100101 Firefox/123.0" version="24.0.6" etag="9Gi3vYyU0Q-F4XrP7m1L" type="github">
  <diagram name="第 1 页" id="jrPARLtv2QYu7uOo-zC3">
    <mxGraphModel>
      <root>
        <mxCell id="0" />
        <mxCell id="1" parent="0" />
      </root>
    </mxGraphModel>
  </diagram>
</mxfile>
